<svg xmlns="http://www.w3.org/2000/svg" width="48" height="48" id="needle"><circle cx="24" cy="24" r="24" fill="#239fdb" fill-rule="evenodd"></circle><path fill="#fff" d="M25.52 14.202a.499.499 0 0 0-.353.146 3.002 3.002 0 0 0 0 4.242c.01.01.023.015.033.024-.043.052-.094.096-.135.15l-11.96 15.43a.5.5 0 0 0 .702.701l15.43-11.96c.052-.04.094-.089.144-.13l3.565 3.563c.78.78.78 2.048 0 2.828a.5.5 0 0 0 .707.707 3.004 3.004 0 0 0 0-4.242l-3.557-3.555c1.228-1.401 1.817-3.317 1.578-5.342a.498.498 0 0 0-.437-.437c-2.028-.24-3.946.35-5.348 1.58-.006-.007-.01-.017-.015-.024a2.002 2.002 0 0 1 0-2.828.5.5 0 0 0-.354-.853zm4.47 3.082c.239-.013.481-.014.725 0 .09 1.565-.393 3.024-1.326 4.117l-1.04-1.041.353-.356a.5.5 0 0 0-.707-.707l-1.414 1.414a.5.5 0 0 0 .707.707l.355-.353 1.033 1.033c-.019.014-.034.032-.052.045l-12.31 9.545 9.542-12.312c.974-1.258 2.468-2 4.135-2.092z"></path></svg>