<!DOCTYPE svg PUBLIC "-//W3C//DTD SVG 1.1//EN" "http://www.w3.org/Graphics/SVG/1.1/DTD/svg11.dtd">
<!-- Uploaded to: SVG Repo, www.svgrepo.com, Transformed by: SVG Repo Mixer Tools -->
<svg fill="#0096C7" width="800px" height="800px" viewBox="0 0 32 32" version="1.1" xmlns="http://www.w3.org/2000/svg" stroke="#0096C7">
<g id="SVGRepo_bgCarrier" stroke-width="0"/>
<g id="SVGRepo_tracerCarrier" stroke-linecap="round" stroke-linejoin="round"/>
<g id="SVGRepo_iconCarrier"> <title>paper-plane</title> <path d="M30.669 1.665l-0.014-0.019c-0.042-0.082-0.096-0.152-0.16-0.21l-0.001-0c-0.013-0.011-0.032-0.005-0.046-0.015-0.020-0.016-0.028-0.041-0.050-0.055-0.107-0.066-0.236-0.106-0.374-0.106-0.017 0-0.033 0.001-0.050 0.002l0.002-0c-0.035 0.006-0.065 0.014-0.095 0.024l0.005-0.001c-0.095 0.007-0.184 0.030-0.264 0.067l0.005-0.002-27.999 16c-0.227 0.132-0.378 0.374-0.378 0.652 0 0.3 0.176 0.559 0.431 0.679l0.005 0.002 9.564 4.414v6.904c0 0 0 0 0 0 0 0.414 0.336 0.75 0.75 0.75 0.153 0 0.296-0.046 0.414-0.125l-0.003 0.002 6.259-4.106 9.015 4.161c0.092 0.043 0.2 0.068 0.314 0.068h0c0 0 0.001 0 0.001 0 0.395 0 0.719-0.306 0.747-0.695l0-0.002 2-27.999c0.001-0.014-0.008-0.025-0.008-0.039 0-0.010 0.001-0.021 0.001-0.032 0-0.115-0.026-0.225-0.073-0.322l0.002 0.004zM26.495 4.867l-14.716 16.82-8.143-3.758zM12.75 28.611v-4.823l4.315 1.992zM27.33 28.865l-8.32-3.841c-0.024-0.015-0.038-0.042-0.064-0.054l-5.722-2.656 15.87-18.139z"/> </g>
</svg>